<mxfile host="Electron" agent="Mozilla/5.0 (Windows NT 10.0; Win64; x64) AppleWebKit/537.36 (KHTML, like Gecko) draw.io/28.1.2 Chrome/138.0.7204.243 Electron/37.4.0 Safari/537.36" version="28.1.2">
  <diagram name="Page-1" id="fR83PZyqezKdg0iDk-UC">
    <mxGraphModel dx="2194" dy="1294" grid="1" gridSize="10" guides="1" tooltips="1" connect="1" arrows="1" fold="1" page="1" pageScale="1" pageWidth="2000" pageHeight="1100" math="0" shadow="0">
      <root>
        <mxCell id="0" />
        <mxCell id="1" parent="0" />
        <mxCell id="oropCWlaTqyJqTuMdmT8-1" value="Horizontal Container" style="rounded=0;whiteSpace=wrap;html=1;sketch=1;hachureGap=4;jiggle=2;curveFitting=1;fontFamily=Architects Daughter;fontSource=https%3A%2F%2Ffonts.googleapis.com%2Fcss%3Ffamily%3DArchitects%2BDaughter;strokeColor=#007FFF;" parent="1" vertex="1">
          <mxGeometry x="20" y="30" width="90" height="60" as="geometry" />
        </mxCell>
        <mxCell id="oropCWlaTqyJqTuMdmT8-2" value="Vertical Container" style="rounded=0;whiteSpace=wrap;html=1;sketch=1;hachureGap=4;jiggle=2;curveFitting=1;fontFamily=Architects Daughter;fontSource=https%3A%2F%2Ffonts.googleapis.com%2Fcss%3Ffamily%3DArchitects%2BDaughter;strokeColor=#FF9933;" parent="1" vertex="1">
          <mxGeometry x="140" y="30" width="85" height="60" as="geometry" />
        </mxCell>
        <mxCell id="oropCWlaTqyJqTuMdmT8-3" value="Object" style="rounded=0;whiteSpace=wrap;html=1;sketch=1;hachureGap=4;jiggle=2;curveFitting=1;fontFamily=Architects Daughter;fontSource=https%3A%2F%2Ffonts.googleapis.com%2Fcss%3Ffamily%3DArchitects%2BDaughter;strokeColor=#808080;" parent="1" vertex="1">
          <mxGeometry x="260" y="30" width="85" height="60" as="geometry" />
        </mxCell>
        <mxCell id="oropCWlaTqyJqTuMdmT8-4" value="" style="rounded=0;whiteSpace=wrap;html=1;sketch=1;hachureGap=4;jiggle=2;curveFitting=1;fontFamily=Architects Daughter;fontSource=https%3A%2F%2Ffonts.googleapis.com%2Fcss%3Ffamily%3DArchitects%2BDaughter;fillColor=#161616;" parent="1" vertex="1">
          <mxGeometry x="20" y="160" width="810" height="680" as="geometry" />
        </mxCell>
        <mxCell id="oropCWlaTqyJqTuMdmT8-5" value="Whole Dashboard" style="text;html=1;align=center;verticalAlign=middle;whiteSpace=wrap;rounded=0;fontFamily=Architects Daughter;fontSource=https%3A%2F%2Ffonts.googleapis.com%2Fcss%3Ffamily%3DArchitects%2BDaughter;" parent="1" vertex="1">
          <mxGeometry x="20" y="110" width="140" height="30" as="geometry" />
        </mxCell>
        <mxCell id="oropCWlaTqyJqTuMdmT8-6" value="" style="rounded=0;whiteSpace=wrap;html=1;sketch=1;hachureGap=4;jiggle=2;curveFitting=1;fontFamily=Architects Daughter;fontSource=https%3A%2F%2Ffonts.googleapis.com%2Fcss%3Ffamily%3DArchitects%2BDaughter;strokeColor=#FF9933;align=center;" parent="1" vertex="1">
          <mxGeometry x="40" y="200" width="85" height="610" as="geometry" />
        </mxCell>
        <mxCell id="oropCWlaTqyJqTuMdmT8-7" value="Navi" style="text;html=1;align=center;verticalAlign=middle;whiteSpace=wrap;rounded=0;fontFamily=Architects Daughter;fontSource=https%3A%2F%2Ffonts.googleapis.com%2Fcss%3Ffamily%3DArchitects%2BDaughter;" parent="1" vertex="1">
          <mxGeometry x="50" y="170" width="60" height="30" as="geometry" />
        </mxCell>
        <mxCell id="oropCWlaTqyJqTuMdmT8-8" value="Logo" style="rounded=0;whiteSpace=wrap;html=1;sketch=1;hachureGap=4;jiggle=2;curveFitting=1;fontFamily=Architects Daughter;fontSource=https%3A%2F%2Ffonts.googleapis.com%2Fcss%3Ffamily%3DArchitects%2BDaughter;strokeColor=#808080;fillColor=#464242;fillStyle=auto;" parent="1" vertex="1">
          <mxGeometry x="50" y="210" width="60" height="30" as="geometry" />
        </mxCell>
        <mxCell id="oropCWlaTqyJqTuMdmT8-9" value="Icon" style="rounded=0;whiteSpace=wrap;html=1;sketch=1;hachureGap=4;jiggle=2;curveFitting=1;fontFamily=Architects Daughter;fontSource=https%3A%2F%2Ffonts.googleapis.com%2Fcss%3Ffamily%3DArchitects%2BDaughter;strokeColor=#808080;fillColor=#464242;fillStyle=auto;gradientColor=none;" parent="1" vertex="1">
          <mxGeometry x="51.25" y="290" width="60" height="30" as="geometry" />
        </mxCell>
        <mxCell id="oropCWlaTqyJqTuMdmT8-10" value="Icon" style="rounded=0;whiteSpace=wrap;html=1;sketch=1;hachureGap=4;jiggle=2;curveFitting=1;fontFamily=Architects Daughter;fontSource=https%3A%2F%2Ffonts.googleapis.com%2Fcss%3Ffamily%3DArchitects%2BDaughter;strokeColor=#808080;fillColor=#464242;fillStyle=auto;gradientColor=none;" parent="1" vertex="1">
          <mxGeometry x="53.75" y="350" width="60" height="30" as="geometry" />
        </mxCell>
        <mxCell id="oropCWlaTqyJqTuMdmT8-11" value="Icon" style="rounded=0;whiteSpace=wrap;html=1;sketch=1;hachureGap=4;jiggle=2;curveFitting=1;fontFamily=Architects Daughter;fontSource=https%3A%2F%2Ffonts.googleapis.com%2Fcss%3Ffamily%3DArchitects%2BDaughter;strokeColor=#808080;fillColor=#464242;fillStyle=auto;gradientColor=none;" parent="1" vertex="1">
          <mxGeometry x="50" y="440" width="60" height="30" as="geometry" />
        </mxCell>
        <mxCell id="oropCWlaTqyJqTuMdmT8-12" value="Icon" style="rounded=0;whiteSpace=wrap;html=1;sketch=1;hachureGap=4;jiggle=2;curveFitting=1;fontFamily=Architects Daughter;fontSource=https%3A%2F%2Ffonts.googleapis.com%2Fcss%3Ffamily%3DArchitects%2BDaughter;strokeColor=#808080;fillColor=#464242;fillStyle=auto;gradientColor=none;" parent="1" vertex="1">
          <mxGeometry x="52.5" y="500" width="60" height="30" as="geometry" />
        </mxCell>
        <mxCell id="oropCWlaTqyJqTuMdmT8-13" value="Icon" style="rounded=0;whiteSpace=wrap;html=1;sketch=1;hachureGap=4;jiggle=2;curveFitting=1;fontFamily=Architects Daughter;fontSource=https%3A%2F%2Ffonts.googleapis.com%2Fcss%3Ffamily%3DArchitects%2BDaughter;strokeColor=#808080;fillColor=#464242;fillStyle=auto;gradientColor=none;" parent="1" vertex="1">
          <mxGeometry x="51.25" y="580" width="60" height="30" as="geometry" />
        </mxCell>
        <mxCell id="oropCWlaTqyJqTuMdmT8-14" value="Icon" style="rounded=0;whiteSpace=wrap;html=1;sketch=1;hachureGap=4;jiggle=2;curveFitting=1;fontFamily=Architects Daughter;fontSource=https%3A%2F%2Ffonts.googleapis.com%2Fcss%3Ffamily%3DArchitects%2BDaughter;strokeColor=#808080;fillColor=#464242;fillStyle=auto;gradientColor=none;" parent="1" vertex="1">
          <mxGeometry x="53.75" y="640" width="60" height="30" as="geometry" />
        </mxCell>
        <mxCell id="oropCWlaTqyJqTuMdmT8-18" value="" style="rounded=0;whiteSpace=wrap;html=1;sketch=1;hachureGap=4;jiggle=2;curveFitting=1;fontFamily=Architects Daughter;fontSource=https%3A%2F%2Ffonts.googleapis.com%2Fcss%3Ffamily%3DArchitects%2BDaughter;strokeColor=#FF9933;" parent="1" vertex="1">
          <mxGeometry x="150" y="200" width="660" height="610" as="geometry" />
        </mxCell>
        <mxCell id="oropCWlaTqyJqTuMdmT8-19" value="Header and Charts" style="text;html=1;align=center;verticalAlign=middle;whiteSpace=wrap;rounded=0;fontFamily=Architects Daughter;fontSource=https%3A%2F%2Ffonts.googleapis.com%2Fcss%3Ffamily%3DArchitects%2BDaughter;" parent="1" vertex="1">
          <mxGeometry x="165" y="170" width="245" height="30" as="geometry" />
        </mxCell>
        <mxCell id="oropCWlaTqyJqTuMdmT8-21" value="" style="rounded=0;whiteSpace=wrap;html=1;sketch=1;hachureGap=4;jiggle=2;curveFitting=1;fontFamily=Architects Daughter;fontSource=https%3A%2F%2Ffonts.googleapis.com%2Fcss%3Ffamily%3DArchitects%2BDaughter;strokeColor=#007FFF;" parent="1" vertex="1">
          <mxGeometry x="165" y="220" width="635" height="60" as="geometry" />
        </mxCell>
        <mxCell id="oropCWlaTqyJqTuMdmT8-22" value="Title" style="rounded=0;whiteSpace=wrap;html=1;sketch=1;hachureGap=4;jiggle=2;curveFitting=1;fontFamily=Architects Daughter;fontSource=https%3A%2F%2Ffonts.googleapis.com%2Fcss%3Ffamily%3DArchitects%2BDaughter;strokeColor=#808080;" parent="1" vertex="1">
          <mxGeometry x="200" y="235" width="120" height="30" as="geometry" />
        </mxCell>
        <mxCell id="oropCWlaTqyJqTuMdmT8-23" value="Icon" style="rounded=0;whiteSpace=wrap;html=1;sketch=1;hachureGap=4;jiggle=2;curveFitting=1;fontFamily=Architects Daughter;fontSource=https%3A%2F%2Ffonts.googleapis.com%2Fcss%3Ffamily%3DArchitects%2BDaughter;strokeColor=#808080;" parent="1" vertex="1">
          <mxGeometry x="720" y="235" width="70" height="30" as="geometry" />
        </mxCell>
        <mxCell id="oropCWlaTqyJqTuMdmT8-24" value="" style="rounded=0;whiteSpace=wrap;html=1;sketch=1;hachureGap=4;jiggle=2;curveFitting=1;fontFamily=Architects Daughter;fontSource=https%3A%2F%2Ffonts.googleapis.com%2Fcss%3Ffamily%3DArchitects%2BDaughter;strokeColor=#007FFF;" parent="1" vertex="1">
          <mxGeometry x="165" y="300" width="635" height="490" as="geometry" />
        </mxCell>
        <mxCell id="oropCWlaTqyJqTuMdmT8-25" value="" style="rounded=0;whiteSpace=wrap;html=1;sketch=1;hachureGap=4;jiggle=2;curveFitting=1;fontFamily=Architects Daughter;fontSource=https%3A%2F%2Ffonts.googleapis.com%2Fcss%3Ffamily%3DArchitects%2BDaughter;strokeColor=#FF9933;" parent="1" vertex="1">
          <mxGeometry x="180" y="310" width="190" height="470" as="geometry" />
        </mxCell>
        <mxCell id="oropCWlaTqyJqTuMdmT8-26" value="Overview" style="text;html=1;align=center;verticalAlign=middle;whiteSpace=wrap;rounded=0;fontFamily=Architects Daughter;fontSource=https%3A%2F%2Ffonts.googleapis.com%2Fcss%3Ffamily%3DArchitects%2BDaughter;" parent="1" vertex="1">
          <mxGeometry x="210" y="320" width="140" height="30" as="geometry" />
        </mxCell>
        <mxCell id="oropCWlaTqyJqTuMdmT8-27" value="Chart" style="rounded=0;whiteSpace=wrap;html=1;sketch=1;hachureGap=4;jiggle=2;curveFitting=1;fontFamily=Architects Daughter;fontSource=https%3A%2F%2Ffonts.googleapis.com%2Fcss%3Ffamily%3DArchitects%2BDaughter;strokeColor=#808080;fillColor=#464242;fillStyle=auto;gradientColor=none;" parent="1" vertex="1">
          <mxGeometry x="200" y="380" width="150" height="60" as="geometry" />
        </mxCell>
        <mxCell id="oropCWlaTqyJqTuMdmT8-30" value="Chart" style="rounded=0;whiteSpace=wrap;html=1;sketch=1;hachureGap=4;jiggle=2;curveFitting=1;fontFamily=Architects Daughter;fontSource=https%3A%2F%2Ffonts.googleapis.com%2Fcss%3Ffamily%3DArchitects%2BDaughter;strokeColor=#808080;fillColor=#464242;fillStyle=auto;gradientColor=none;" parent="1" vertex="1">
          <mxGeometry x="200" y="460" width="150" height="60" as="geometry" />
        </mxCell>
        <mxCell id="oropCWlaTqyJqTuMdmT8-31" value="Chart" style="rounded=0;whiteSpace=wrap;html=1;sketch=1;hachureGap=4;jiggle=2;curveFitting=1;fontFamily=Architects Daughter;fontSource=https%3A%2F%2Ffonts.googleapis.com%2Fcss%3Ffamily%3DArchitects%2BDaughter;strokeColor=#808080;fillColor=#464242;fillStyle=auto;gradientColor=none;" parent="1" vertex="1">
          <mxGeometry x="200" y="550" width="150" height="60" as="geometry" />
        </mxCell>
        <mxCell id="oropCWlaTqyJqTuMdmT8-32" value="Chart" style="rounded=0;whiteSpace=wrap;html=1;sketch=1;hachureGap=4;jiggle=2;curveFitting=1;fontFamily=Architects Daughter;fontSource=https%3A%2F%2Ffonts.googleapis.com%2Fcss%3Ffamily%3DArchitects%2BDaughter;strokeColor=#808080;fillColor=#464242;fillStyle=auto;gradientColor=none;" parent="1" vertex="1">
          <mxGeometry x="200" y="630" width="150" height="60" as="geometry" />
        </mxCell>
        <mxCell id="oropCWlaTqyJqTuMdmT8-33" value="" style="rounded=0;whiteSpace=wrap;html=1;sketch=1;hachureGap=4;jiggle=2;curveFitting=1;fontFamily=Architects Daughter;fontSource=https%3A%2F%2Ffonts.googleapis.com%2Fcss%3Ffamily%3DArchitects%2BDaughter;strokeColor=#FF9933;" parent="1" vertex="1">
          <mxGeometry x="387.5" y="310" width="392.5" height="470" as="geometry" />
        </mxCell>
        <mxCell id="oropCWlaTqyJqTuMdmT8-34" value="" style="rounded=0;whiteSpace=wrap;html=1;sketch=1;hachureGap=4;jiggle=2;curveFitting=1;fontFamily=Architects Daughter;fontSource=https%3A%2F%2Ffonts.googleapis.com%2Fcss%3Ffamily%3DArchitects%2BDaughter;strokeColor=#FF9933;" parent="1" vertex="1">
          <mxGeometry x="398.75" y="330" width="370" height="210" as="geometry" />
        </mxCell>
        <mxCell id="oropCWlaTqyJqTuMdmT8-35" value="" style="rounded=0;whiteSpace=wrap;html=1;sketch=1;hachureGap=4;jiggle=2;curveFitting=1;fontFamily=Architects Daughter;fontSource=https%3A%2F%2Ffonts.googleapis.com%2Fcss%3Ffamily%3DArchitects%2BDaughter;strokeColor=#FF9933;" parent="1" vertex="1">
          <mxGeometry x="398.75" y="555" width="370" height="210" as="geometry" />
        </mxCell>
        <mxCell id="oropCWlaTqyJqTuMdmT8-36" value="Demographics" style="text;html=1;align=center;verticalAlign=middle;whiteSpace=wrap;rounded=0;fontFamily=Architects Daughter;fontSource=https%3A%2F%2Ffonts.googleapis.com%2Fcss%3Ffamily%3DArchitects%2BDaughter;" parent="1" vertex="1">
          <mxGeometry x="412.5" y="350" width="140" height="30" as="geometry" />
        </mxCell>
        <mxCell id="oropCWlaTqyJqTuMdmT8-37" value="Income" style="text;html=1;align=center;verticalAlign=middle;whiteSpace=wrap;rounded=0;fontFamily=Architects Daughter;fontSource=https%3A%2F%2Ffonts.googleapis.com%2Fcss%3Ffamily%3DArchitects%2BDaughter;" parent="1" vertex="1">
          <mxGeometry x="425" y="570" width="85" height="30" as="geometry" />
        </mxCell>
        <mxCell id="oropCWlaTqyJqTuMdmT8-38" value="" style="rounded=0;whiteSpace=wrap;html=1;sketch=1;hachureGap=4;jiggle=2;curveFitting=1;fontFamily=Architects Daughter;fontSource=https%3A%2F%2Ffonts.googleapis.com%2Fcss%3Ffamily%3DArchitects%2BDaughter;strokeColor=#007FFF;" parent="1" vertex="1">
          <mxGeometry x="410" y="380" width="350" height="150" as="geometry" />
        </mxCell>
        <mxCell id="oropCWlaTqyJqTuMdmT8-39" value="Chart" style="rounded=0;whiteSpace=wrap;html=1;sketch=1;hachureGap=4;jiggle=2;curveFitting=1;fontFamily=Architects Daughter;fontSource=https%3A%2F%2Ffonts.googleapis.com%2Fcss%3Ffamily%3DArchitects%2BDaughter;strokeColor=#808080;fillColor=#464242;fillStyle=auto;gradientColor=none;" parent="1" vertex="1">
          <mxGeometry x="425" y="400" width="85" height="110" as="geometry" />
        </mxCell>
        <mxCell id="oropCWlaTqyJqTuMdmT8-40" value="Chart" style="rounded=0;whiteSpace=wrap;html=1;sketch=1;hachureGap=4;jiggle=2;curveFitting=1;fontFamily=Architects Daughter;fontSource=https%3A%2F%2Ffonts.googleapis.com%2Fcss%3Ffamily%3DArchitects%2BDaughter;strokeColor=#808080;fillColor=#464242;fillStyle=auto;gradientColor=none;" parent="1" vertex="1">
          <mxGeometry x="540" y="400" width="87.5" height="110" as="geometry" />
        </mxCell>
        <mxCell id="oropCWlaTqyJqTuMdmT8-41" value="Chart" style="rounded=0;whiteSpace=wrap;html=1;sketch=1;hachureGap=4;jiggle=2;curveFitting=1;fontFamily=Architects Daughter;fontSource=https%3A%2F%2Ffonts.googleapis.com%2Fcss%3Ffamily%3DArchitects%2BDaughter;strokeColor=#808080;fillColor=#464242;fillStyle=auto;gradientColor=none;" parent="1" vertex="1">
          <mxGeometry x="660" y="400" width="87.5" height="110" as="geometry" />
        </mxCell>
        <mxCell id="oropCWlaTqyJqTuMdmT8-42" value="" style="rounded=0;whiteSpace=wrap;html=1;sketch=1;hachureGap=4;jiggle=2;curveFitting=1;fontFamily=Architects Daughter;fontSource=https%3A%2F%2Ffonts.googleapis.com%2Fcss%3Ffamily%3DArchitects%2BDaughter;strokeColor=#007FFF;" parent="1" vertex="1">
          <mxGeometry x="412.5" y="600" width="350" height="150" as="geometry" />
        </mxCell>
        <mxCell id="oropCWlaTqyJqTuMdmT8-43" value="Chart" style="rounded=0;whiteSpace=wrap;html=1;sketch=1;hachureGap=4;jiggle=2;curveFitting=1;fontFamily=Architects Daughter;fontSource=https%3A%2F%2Ffonts.googleapis.com%2Fcss%3Ffamily%3DArchitects%2BDaughter;strokeColor=#808080;fillColor=#464242;fillStyle=auto;gradientColor=none;" parent="1" vertex="1">
          <mxGeometry x="455" y="620" width="125" height="110" as="geometry" />
        </mxCell>
        <mxCell id="oropCWlaTqyJqTuMdmT8-44" value="Chart" style="rounded=0;whiteSpace=wrap;html=1;sketch=1;hachureGap=4;jiggle=2;curveFitting=1;fontFamily=Architects Daughter;fontSource=https%3A%2F%2Ffonts.googleapis.com%2Fcss%3Ffamily%3DArchitects%2BDaughter;strokeColor=#808080;fillColor=#464242;fillStyle=auto;gradientColor=none;" parent="1" vertex="1">
          <mxGeometry x="622.5" y="620" width="125" height="110" as="geometry" />
        </mxCell>
        <mxCell id="oropCWlaTqyJqTuMdmT8-45" value="Vertical Container" style="rounded=0;whiteSpace=wrap;html=1;sketch=1;hachureGap=4;jiggle=2;curveFitting=1;fontFamily=Architects Daughter;fontSource=https%3A%2F%2Ffonts.googleapis.com%2Fcss%3Ffamily%3DArchitects%2BDaughter;strokeColor=#FF9933;" parent="1" vertex="1">
          <mxGeometry x="350" y="880" width="120" height="170" as="geometry" />
        </mxCell>
        <mxCell id="oropCWlaTqyJqTuMdmT8-46" value="Title" style="rounded=0;whiteSpace=wrap;html=1;sketch=1;hachureGap=4;jiggle=2;curveFitting=1;fontFamily=Architects Daughter;fontSource=https%3A%2F%2Ffonts.googleapis.com%2Fcss%3Ffamily%3DArchitects%2BDaughter;strokeColor=#808080;" parent="1" vertex="1">
          <mxGeometry x="360" y="890" width="100" height="40" as="geometry" />
        </mxCell>
        <mxCell id="oropCWlaTqyJqTuMdmT8-47" value="Chart" style="rounded=0;whiteSpace=wrap;html=1;sketch=1;hachureGap=4;jiggle=2;curveFitting=1;fontFamily=Architects Daughter;fontSource=https%3A%2F%2Ffonts.googleapis.com%2Fcss%3Ffamily%3DArchitects%2BDaughter;strokeColor=#808080;fillColor=#464242;fillStyle=auto;gradientColor=none;" parent="1" vertex="1">
          <mxGeometry x="360" y="940" width="100" height="90" as="geometry" />
        </mxCell>
        <mxCell id="gcQ_IOOyfLkZrGy6LtI6-1" value="Horizontal Container" style="rounded=0;whiteSpace=wrap;html=1;sketch=1;hachureGap=4;jiggle=2;curveFitting=1;fontFamily=Architects Daughter;fontSource=https%3A%2F%2Ffonts.googleapis.com%2Fcss%3Ffamily%3DArchitects%2BDaughter;strokeColor=#007FFF;" vertex="1" parent="1">
          <mxGeometry x="960" y="30" width="90" height="60" as="geometry" />
        </mxCell>
        <mxCell id="gcQ_IOOyfLkZrGy6LtI6-2" value="Vertical Container" style="rounded=0;whiteSpace=wrap;html=1;sketch=1;hachureGap=4;jiggle=2;curveFitting=1;fontFamily=Architects Daughter;fontSource=https%3A%2F%2Ffonts.googleapis.com%2Fcss%3Ffamily%3DArchitects%2BDaughter;strokeColor=#FF9933;" vertex="1" parent="1">
          <mxGeometry x="1080" y="30" width="85" height="60" as="geometry" />
        </mxCell>
        <mxCell id="gcQ_IOOyfLkZrGy6LtI6-3" value="Object" style="rounded=0;whiteSpace=wrap;html=1;sketch=1;hachureGap=4;jiggle=2;curveFitting=1;fontFamily=Architects Daughter;fontSource=https%3A%2F%2Ffonts.googleapis.com%2Fcss%3Ffamily%3DArchitects%2BDaughter;strokeColor=#808080;" vertex="1" parent="1">
          <mxGeometry x="1200" y="30" width="85" height="60" as="geometry" />
        </mxCell>
        <mxCell id="gcQ_IOOyfLkZrGy6LtI6-4" value="" style="rounded=0;whiteSpace=wrap;html=1;sketch=1;hachureGap=4;jiggle=2;curveFitting=1;fontFamily=Architects Daughter;fontSource=https%3A%2F%2Ffonts.googleapis.com%2Fcss%3Ffamily%3DArchitects%2BDaughter;fillColor=#161616;" vertex="1" parent="1">
          <mxGeometry x="960" y="160" width="810" height="680" as="geometry" />
        </mxCell>
        <mxCell id="gcQ_IOOyfLkZrGy6LtI6-5" value="Whole Dashboard" style="text;html=1;align=center;verticalAlign=middle;whiteSpace=wrap;rounded=0;fontFamily=Architects Daughter;fontSource=https%3A%2F%2Ffonts.googleapis.com%2Fcss%3Ffamily%3DArchitects%2BDaughter;" vertex="1" parent="1">
          <mxGeometry x="960" y="110" width="140" height="30" as="geometry" />
        </mxCell>
        <mxCell id="gcQ_IOOyfLkZrGy6LtI6-6" value="" style="rounded=0;whiteSpace=wrap;html=1;sketch=1;hachureGap=4;jiggle=2;curveFitting=1;fontFamily=Architects Daughter;fontSource=https%3A%2F%2Ffonts.googleapis.com%2Fcss%3Ffamily%3DArchitects%2BDaughter;strokeColor=#FF9933;align=center;" vertex="1" parent="1">
          <mxGeometry x="980" y="200" width="85" height="610" as="geometry" />
        </mxCell>
        <mxCell id="gcQ_IOOyfLkZrGy6LtI6-7" value="Navi" style="text;html=1;align=center;verticalAlign=middle;whiteSpace=wrap;rounded=0;fontFamily=Architects Daughter;fontSource=https%3A%2F%2Ffonts.googleapis.com%2Fcss%3Ffamily%3DArchitects%2BDaughter;" vertex="1" parent="1">
          <mxGeometry x="990" y="170" width="60" height="30" as="geometry" />
        </mxCell>
        <mxCell id="gcQ_IOOyfLkZrGy6LtI6-8" value="Logo" style="rounded=0;whiteSpace=wrap;html=1;sketch=1;hachureGap=4;jiggle=2;curveFitting=1;fontFamily=Architects Daughter;fontSource=https%3A%2F%2Ffonts.googleapis.com%2Fcss%3Ffamily%3DArchitects%2BDaughter;strokeColor=#808080;fillColor=#464242;fillStyle=auto;" vertex="1" parent="1">
          <mxGeometry x="990" y="210" width="60" height="30" as="geometry" />
        </mxCell>
        <mxCell id="gcQ_IOOyfLkZrGy6LtI6-9" value="Icon" style="rounded=0;whiteSpace=wrap;html=1;sketch=1;hachureGap=4;jiggle=2;curveFitting=1;fontFamily=Architects Daughter;fontSource=https%3A%2F%2Ffonts.googleapis.com%2Fcss%3Ffamily%3DArchitects%2BDaughter;strokeColor=#808080;fillColor=#464242;fillStyle=auto;gradientColor=none;" vertex="1" parent="1">
          <mxGeometry x="991.25" y="290" width="60" height="30" as="geometry" />
        </mxCell>
        <mxCell id="gcQ_IOOyfLkZrGy6LtI6-10" value="Icon" style="rounded=0;whiteSpace=wrap;html=1;sketch=1;hachureGap=4;jiggle=2;curveFitting=1;fontFamily=Architects Daughter;fontSource=https%3A%2F%2Ffonts.googleapis.com%2Fcss%3Ffamily%3DArchitects%2BDaughter;strokeColor=#808080;fillColor=#464242;fillStyle=auto;gradientColor=none;" vertex="1" parent="1">
          <mxGeometry x="993.75" y="350" width="60" height="30" as="geometry" />
        </mxCell>
        <mxCell id="gcQ_IOOyfLkZrGy6LtI6-11" value="Icon" style="rounded=0;whiteSpace=wrap;html=1;sketch=1;hachureGap=4;jiggle=2;curveFitting=1;fontFamily=Architects Daughter;fontSource=https%3A%2F%2Ffonts.googleapis.com%2Fcss%3Ffamily%3DArchitects%2BDaughter;strokeColor=#808080;fillColor=#464242;fillStyle=auto;gradientColor=none;" vertex="1" parent="1">
          <mxGeometry x="990" y="440" width="60" height="30" as="geometry" />
        </mxCell>
        <mxCell id="gcQ_IOOyfLkZrGy6LtI6-12" value="Icon" style="rounded=0;whiteSpace=wrap;html=1;sketch=1;hachureGap=4;jiggle=2;curveFitting=1;fontFamily=Architects Daughter;fontSource=https%3A%2F%2Ffonts.googleapis.com%2Fcss%3Ffamily%3DArchitects%2BDaughter;strokeColor=#808080;fillColor=#464242;fillStyle=auto;gradientColor=none;" vertex="1" parent="1">
          <mxGeometry x="992.5" y="500" width="60" height="30" as="geometry" />
        </mxCell>
        <mxCell id="gcQ_IOOyfLkZrGy6LtI6-13" value="Icon" style="rounded=0;whiteSpace=wrap;html=1;sketch=1;hachureGap=4;jiggle=2;curveFitting=1;fontFamily=Architects Daughter;fontSource=https%3A%2F%2Ffonts.googleapis.com%2Fcss%3Ffamily%3DArchitects%2BDaughter;strokeColor=#808080;fillColor=#464242;fillStyle=auto;gradientColor=none;" vertex="1" parent="1">
          <mxGeometry x="991.25" y="580" width="60" height="30" as="geometry" />
        </mxCell>
        <mxCell id="gcQ_IOOyfLkZrGy6LtI6-14" value="Icon" style="rounded=0;whiteSpace=wrap;html=1;sketch=1;hachureGap=4;jiggle=2;curveFitting=1;fontFamily=Architects Daughter;fontSource=https%3A%2F%2Ffonts.googleapis.com%2Fcss%3Ffamily%3DArchitects%2BDaughter;strokeColor=#808080;fillColor=#464242;fillStyle=auto;gradientColor=none;" vertex="1" parent="1">
          <mxGeometry x="993.75" y="640" width="60" height="30" as="geometry" />
        </mxCell>
        <mxCell id="gcQ_IOOyfLkZrGy6LtI6-16" value="Header and Charts" style="text;html=1;align=center;verticalAlign=middle;whiteSpace=wrap;rounded=0;fontFamily=Architects Daughter;fontSource=https%3A%2F%2Ffonts.googleapis.com%2Fcss%3Ffamily%3DArchitects%2BDaughter;" vertex="1" parent="1">
          <mxGeometry x="1105" y="170" width="245" height="30" as="geometry" />
        </mxCell>
        <mxCell id="gcQ_IOOyfLkZrGy6LtI6-39" value="" style="rounded=0;whiteSpace=wrap;html=1;sketch=1;hachureGap=4;jiggle=2;curveFitting=1;fontFamily=Architects Daughter;fontSource=https%3A%2F%2Ffonts.googleapis.com%2Fcss%3Ffamily%3DArchitects%2BDaughter;strokeColor=#FF9933;" vertex="1" parent="1">
          <mxGeometry x="1090" y="195" width="660" height="610" as="geometry" />
        </mxCell>
        <mxCell id="gcQ_IOOyfLkZrGy6LtI6-40" value="" style="rounded=0;whiteSpace=wrap;html=1;sketch=1;hachureGap=4;jiggle=2;curveFitting=1;fontFamily=Architects Daughter;fontSource=https%3A%2F%2Ffonts.googleapis.com%2Fcss%3Ffamily%3DArchitects%2BDaughter;strokeColor=#007FFF;" vertex="1" parent="1">
          <mxGeometry x="1105" y="220" width="635" height="60" as="geometry" />
        </mxCell>
        <mxCell id="gcQ_IOOyfLkZrGy6LtI6-41" value="Title" style="rounded=0;whiteSpace=wrap;html=1;sketch=1;hachureGap=4;jiggle=2;curveFitting=1;fontFamily=Architects Daughter;fontSource=https%3A%2F%2Ffonts.googleapis.com%2Fcss%3Ffamily%3DArchitects%2BDaughter;strokeColor=#808080;" vertex="1" parent="1">
          <mxGeometry x="1140" y="235" width="120" height="30" as="geometry" />
        </mxCell>
        <mxCell id="gcQ_IOOyfLkZrGy6LtI6-42" value="Icon" style="rounded=0;whiteSpace=wrap;html=1;sketch=1;hachureGap=4;jiggle=2;curveFitting=1;fontFamily=Architects Daughter;fontSource=https%3A%2F%2Ffonts.googleapis.com%2Fcss%3Ffamily%3DArchitects%2BDaughter;strokeColor=#808080;" vertex="1" parent="1">
          <mxGeometry x="1650" y="235" width="70" height="30" as="geometry" />
        </mxCell>
        <mxCell id="gcQ_IOOyfLkZrGy6LtI6-45" value="" style="rounded=0;whiteSpace=wrap;html=1;sketch=1;hachureGap=4;jiggle=2;curveFitting=1;fontFamily=Architects Daughter;fontSource=https%3A%2F%2Ffonts.googleapis.com%2Fcss%3Ffamily%3DArchitects%2BDaughter;strokeColor=#FF9933;" vertex="1" parent="1">
          <mxGeometry x="1105" y="300" width="625" height="480" as="geometry" />
        </mxCell>
        <mxCell id="gcQ_IOOyfLkZrGy6LtI6-46" value="Employee List" style="rounded=0;whiteSpace=wrap;html=1;sketch=1;hachureGap=4;jiggle=2;curveFitting=1;fontFamily=Architects Daughter;fontSource=https%3A%2F%2Ffonts.googleapis.com%2Fcss%3Ffamily%3DArchitects%2BDaughter;strokeColor=#808080;align=left;" vertex="1" parent="1">
          <mxGeometry x="1120" y="320" width="600" height="30" as="geometry" />
        </mxCell>
        <mxCell id="gcQ_IOOyfLkZrGy6LtI6-47" value="" style="rounded=0;whiteSpace=wrap;html=1;sketch=1;hachureGap=4;jiggle=2;curveFitting=1;fontFamily=Architects Daughter;fontSource=https%3A%2F%2Ffonts.googleapis.com%2Fcss%3Ffamily%3DArchitects%2BDaughter;strokeColor=#007FFF;" vertex="1" parent="1">
          <mxGeometry x="1120" y="370" width="600" height="90" as="geometry" />
        </mxCell>
        <mxCell id="gcQ_IOOyfLkZrGy6LtI6-48" value="Filter" style="rounded=0;whiteSpace=wrap;html=1;sketch=1;hachureGap=4;jiggle=2;curveFitting=1;fontFamily=Architects Daughter;fontSource=https%3A%2F%2Ffonts.googleapis.com%2Fcss%3Ffamily%3DArchitects%2BDaughter;strokeColor=#808080;" vertex="1" parent="1">
          <mxGeometry x="1140" y="385" width="85" height="60" as="geometry" />
        </mxCell>
        <mxCell id="gcQ_IOOyfLkZrGy6LtI6-49" value="Filter" style="rounded=0;whiteSpace=wrap;html=1;sketch=1;hachureGap=4;jiggle=2;curveFitting=1;fontFamily=Architects Daughter;fontSource=https%3A%2F%2Ffonts.googleapis.com%2Fcss%3Ffamily%3DArchitects%2BDaughter;strokeColor=#808080;" vertex="1" parent="1">
          <mxGeometry x="1300" y="385" width="85" height="60" as="geometry" />
        </mxCell>
        <mxCell id="gcQ_IOOyfLkZrGy6LtI6-50" value="Filter" style="rounded=0;whiteSpace=wrap;html=1;sketch=1;hachureGap=4;jiggle=2;curveFitting=1;fontFamily=Architects Daughter;fontSource=https%3A%2F%2Ffonts.googleapis.com%2Fcss%3Ffamily%3DArchitects%2BDaughter;strokeColor=#808080;" vertex="1" parent="1">
          <mxGeometry x="1450" y="385" width="85" height="60" as="geometry" />
        </mxCell>
        <mxCell id="gcQ_IOOyfLkZrGy6LtI6-51" value="Filter" style="rounded=0;whiteSpace=wrap;html=1;sketch=1;hachureGap=4;jiggle=2;curveFitting=1;fontFamily=Architects Daughter;fontSource=https%3A%2F%2Ffonts.googleapis.com%2Fcss%3Ffamily%3DArchitects%2BDaughter;strokeColor=#808080;" vertex="1" parent="1">
          <mxGeometry x="1590" y="385" width="85" height="60" as="geometry" />
        </mxCell>
        <mxCell id="gcQ_IOOyfLkZrGy6LtI6-52" value="List" style="rounded=0;whiteSpace=wrap;html=1;sketch=1;hachureGap=4;jiggle=2;curveFitting=1;fontFamily=Architects Daughter;fontSource=https%3A%2F%2Ffonts.googleapis.com%2Fcss%3Ffamily%3DArchitects%2BDaughter;strokeColor=#808080;" vertex="1" parent="1">
          <mxGeometry x="1120" y="475" width="600" height="295" as="geometry" />
        </mxCell>
        <mxCell id="gcQ_IOOyfLkZrGy6LtI6-53" value="" style="rounded=0;whiteSpace=wrap;html=1;sketch=1;hachureGap=4;jiggle=2;curveFitting=1;fontFamily=Architects Daughter;fontSource=https%3A%2F%2Ffonts.googleapis.com%2Fcss%3Ffamily%3DArchitects%2BDaughter;strokeColor=#FF9933;" vertex="1" parent="1">
          <mxGeometry x="1055" y="890" width="170" height="160" as="geometry" />
        </mxCell>
        <mxCell id="gcQ_IOOyfLkZrGy6LtI6-54" value="" style="rounded=0;whiteSpace=wrap;html=1;sketch=1;hachureGap=4;jiggle=2;curveFitting=1;fontFamily=Architects Daughter;fontSource=https%3A%2F%2Ffonts.googleapis.com%2Fcss%3Ffamily%3DArchitects%2BDaughter;strokeColor=#007FFF;" vertex="1" parent="1">
          <mxGeometry x="1065" y="900" width="150" height="30" as="geometry" />
        </mxCell>
        <mxCell id="gcQ_IOOyfLkZrGy6LtI6-57" value="Title" style="rounded=0;whiteSpace=wrap;html=1;sketch=1;hachureGap=4;jiggle=2;curveFitting=1;fontFamily=Architects Daughter;fontSource=https%3A%2F%2Ffonts.googleapis.com%2Fcss%3Ffamily%3DArchitects%2BDaughter;strokeColor=#808080;" vertex="1" parent="1">
          <mxGeometry x="1075" y="905" width="50" height="20" as="geometry" />
        </mxCell>
        <mxCell id="gcQ_IOOyfLkZrGy6LtI6-58" value="Icon" style="rounded=0;whiteSpace=wrap;html=1;sketch=1;hachureGap=4;jiggle=2;curveFitting=1;fontFamily=Architects Daughter;fontSource=https%3A%2F%2Ffonts.googleapis.com%2Fcss%3Ffamily%3DArchitects%2BDaughter;strokeColor=#808080;" vertex="1" parent="1">
          <mxGeometry x="1155" y="905" width="50" height="20" as="geometry" />
        </mxCell>
        <mxCell id="gcQ_IOOyfLkZrGy6LtI6-59" value="" style="rounded=0;whiteSpace=wrap;html=1;sketch=1;hachureGap=4;jiggle=2;curveFitting=1;fontFamily=Architects Daughter;fontSource=https%3A%2F%2Ffonts.googleapis.com%2Fcss%3Ffamily%3DArchitects%2BDaughter;strokeColor=#FF9933;" vertex="1" parent="1">
          <mxGeometry x="1065" y="940" width="150" height="100" as="geometry" />
        </mxCell>
        <mxCell id="gcQ_IOOyfLkZrGy6LtI6-60" value="Title" style="rounded=0;whiteSpace=wrap;html=1;sketch=1;hachureGap=4;jiggle=2;curveFitting=1;fontFamily=Architects Daughter;fontSource=https%3A%2F%2Ffonts.googleapis.com%2Fcss%3Ffamily%3DArchitects%2BDaughter;strokeColor=#808080;" vertex="1" parent="1">
          <mxGeometry x="1075" y="955" width="130" height="25" as="geometry" />
        </mxCell>
        <mxCell id="gcQ_IOOyfLkZrGy6LtI6-61" value="Title" style="rounded=0;whiteSpace=wrap;html=1;sketch=1;hachureGap=4;jiggle=2;curveFitting=1;fontFamily=Architects Daughter;fontSource=https%3A%2F%2Ffonts.googleapis.com%2Fcss%3Ffamily%3DArchitects%2BDaughter;strokeColor=#808080;" vertex="1" parent="1">
          <mxGeometry x="1075" y="1000" width="130" height="25" as="geometry" />
        </mxCell>
      </root>
    </mxGraphModel>
  </diagram>
</mxfile>
